#Comment line ignore any data following # character 
#Hierarchical Translation and Rotation (.htr) file 
[Header]	
#Header keywords are followed by a single value 
FileType HTR		#Single word string
DataType HTRS		#Translation followed by rotation and scale data
FileVersion 1		#integer
NumSegments 84		#integer
NumFrames 2		#integer
DataFrameRate 30		#integer, data frame rate in this file
EulerRotationOrder ZYX
CalibrationUnits mm
RotationUnits Degrees
GlobalAxisofGravity Y
BoneLengthAxis Y
ScaleFactor 1.00
[SegmentNames&Hierarchy]
#CHILD	PARENT
MASTER GLOBAL
root MASTER
chest root
L_mid_tent01 root
R_mid_tent01 root
spine01 root
Bip01_Neck chest
L_humerus chest
R_humerus chest
weapon_bone chest
Bip01_Head Bip01_Neck
eye_left_bone Bip01_Head
eye_right_bone Bip01_Head
L_forearm L_humerus
L_front_hand L_forearm
L_weapon_bone L_forearm
L_front_hand01_01 L_front_hand
L_front_hand02_01 L_front_hand
L_front_hand03_01 L_front_hand
L_front_hand01_02 L_front_hand01_01
L_front_hand02_02 L_front_hand02_01
L_front_hand03_02 L_front_hand03_01
R_forearm R_humerus
R_front_hand R_forearm
R_weapon_bone R_forearm
R_front_hand01_01 R_front_hand
R_front_hand02_01 R_front_hand
R_front_hand03_01 R_front_hand
R_front_hand01_02 R_front_hand01_01
R_front_hand02_02 R_front_hand02_01
R_front_hand03_02 R_front_hand03_01
null_rope01_connect L_mid_tent01
Rope1_Seg01 null_rope01_connect
Rope1_Seg02 Rope1_Seg01
Rope1_Seg03 Rope1_Seg02
Rope1_Seg04 Rope1_Seg03
Rope1_Seg05 Rope1_Seg04
Rope1_Seg06 Rope1_Seg05
Rope1_Seg07 Rope1_Seg06
Rope1_Seg09 Rope1_Seg07
L_mid_hand01 Rope1_Seg09
L_mid_hand02 Rope1_Seg09
L_mid_hand03 Rope1_Seg09
null_rope02_connect R_mid_tent01
Rope2_Seg01 null_rope02_connect
Rope2_Seg02 Rope2_Seg01
Rope2_Seg03 Rope2_Seg02
Rope2_Seg04 Rope2_Seg03
Rope2_Seg05 Rope2_Seg04
Rope2_Seg06 Rope2_Seg05
Rope2_Seg07 Rope2_Seg06
Rope2_Seg09 Rope2_Seg07
R_mid_hand01 Rope2_Seg09
R_mid_hand02 Rope2_Seg09
R_mid_hand03 Rope2_Seg09
spine02 spine01
spine03 spine02
pelvis spine03
null_rope03_connect pelvis
null_rope04_connect pelvis
Rope3_Seg01 null_rope03_connect
Rope3_Seg02 Rope3_Seg01
Rope3_Seg03 Rope3_Seg02
Rope3_Seg04 Rope3_Seg03
Rope3_Seg05 Rope3_Seg04
Rope3_Seg06 Rope3_Seg05
Rope3_Seg07 Rope3_Seg06
Rope3_Seg08 Rope3_Seg07
Rope3_Seg09 Rope3_Seg08
R_rear_hand01 Rope3_Seg09
R_rear_hand02 Rope3_Seg09
R_rear_hand03 Rope3_Seg09
Rope4_Seg01 null_rope04_connect
Rope4_Seg02 Rope4_Seg01
Rope4_Seg03 Rope4_Seg02
Rope4_Seg04 Rope4_Seg03
Rope4_Seg05 Rope4_Seg04
Rope4_Seg06 Rope4_Seg05
Rope4_Seg07 Rope4_Seg06
Rope4_Seg08 Rope4_Seg07
Rope4_Seg09 Rope4_Seg08
L_rear_hand01 Rope4_Seg09
L_rear_hand02 Rope4_Seg09
L_rear_hand03 Rope4_Seg09
[BasePosition]
#SegmentName Tx, Ty, Tz, Rx, Ry, Rz, BoneLength
MASTER 0.000000 0.000000 0.000000 -90.000000 0.000000 0.000000 10.000000 
root 0.000000 0.000000 0.000000 0.000000 0.000000 0.000000 10.000000 
chest 0.000000 0.000000 0.000000 0.000000 0.000000 0.000000 10.000000 
L_mid_tent01 0.000000 0.000000 0.000000 0.000000 0.000000 0.000000 10.000000 
R_mid_tent01 0.000000 0.000000 0.000000 0.000000 0.000000 0.000000 10.000000 
spine01 0.000000 0.000000 0.000000 0.000000 0.000000 0.000000 10.000000 
Bip01_Neck 0.000000 0.000000 0.000000 0.000000 0.000000 0.000000 10.000000 
L_humerus 0.000000 0.000000 0.000000 0.000000 0.000000 0.000000 10.000000 
R_humerus 0.000000 0.000000 0.000000 0.000000 0.000000 0.000000 10.000000 
weapon_bone 0.000000 0.000000 0.000000 0.000000 0.000000 0.000000 10.000000 
Bip01_Head 0.000000 0.000000 0.000000 0.000000 0.000000 0.000000 10.000000 
eye_left_bone 0.000000 0.000000 0.000000 0.000000 0.000000 0.000000 10.000000 
eye_right_bone 0.000000 0.000000 0.000000 0.000000 0.000000 0.000000 10.000000 
L_forearm 0.000000 0.000000 0.000000 0.000000 0.000000 0.000000 10.000000 
L_front_hand 0.000000 0.000000 0.000000 0.000000 0.000000 0.000000 10.000000 
L_weapon_bone 0.000000 0.000000 0.000000 0.000000 0.000000 0.000000 10.000000 
L_front_hand01_01 0.000000 0.000000 0.000000 0.000000 0.000000 0.000000 10.000000 
L_front_hand02_01 0.000000 0.000000 0.000000 0.000000 0.000000 0.000000 10.000000 
L_front_hand03_01 0.000000 0.000000 0.000000 0.000000 0.000000 0.000000 10.000000 
L_front_hand01_02 0.000000 0.000000 0.000000 0.000000 0.000000 0.000000 10.000000 
L_front_hand02_02 0.000000 0.000000 0.000000 0.000000 0.000000 0.000000 10.000000 
L_front_hand03_02 0.000000 0.000000 0.000000 0.000000 0.000000 0.000000 10.000000 
R_forearm 0.000000 0.000000 0.000000 0.000000 0.000000 0.000000 10.000000 
R_front_hand 0.000000 0.000000 0.000000 0.000000 0.000000 0.000000 10.000000 
R_weapon_bone 0.000000 0.000000 0.000000 0.000000 0.000000 0.000000 10.000000 
R_front_hand01_01 0.000000 0.000000 0.000000 0.000000 0.000000 0.000000 10.000000 
R_front_hand02_01 0.000000 0.000000 0.000000 0.000000 0.000000 0.000000 10.000000 
R_front_hand03_01 0.000000 0.000000 0.000000 0.000000 0.000000 0.000000 10.000000 
R_front_hand01_02 0.000000 0.000000 0.000000 0.000000 0.000000 0.000000 10.000000 
R_front_hand02_02 0.000000 0.000000 0.000000 0.000000 0.000000 0.000000 10.000000 
R_front_hand03_02 0.000000 0.000000 0.000000 0.000000 0.000000 0.000000 10.000000 
null_rope01_connect 0.000000 0.000000 0.000000 0.000000 0.000000 0.000000 10.000000 
Rope1_Seg01 0.000000 0.000000 0.000000 0.000000 0.000000 0.000000 10.000000 
Rope1_Seg02 0.000000 0.000000 0.000000 0.000000 0.000000 0.000000 10.000000 
Rope1_Seg03 0.000000 0.000000 0.000000 0.000000 0.000000 0.000000 10.000000 
Rope1_Seg04 0.000000 0.000000 0.000000 0.000000 0.000000 0.000000 10.000000 
Rope1_Seg05 0.000000 0.000000 0.000000 0.000000 0.000000 0.000000 10.000000 
Rope1_Seg06 0.000000 0.000000 0.000000 0.000000 0.000000 0.000000 10.000000 
Rope1_Seg07 0.000000 0.000000 0.000000 0.000000 0.000000 0.000000 10.000000 
Rope1_Seg09 0.000000 0.000000 0.000000 0.000000 0.000000 0.000000 10.000000 
L_mid_hand01 0.000000 0.000000 0.000000 0.000000 0.000000 0.000000 10.000000 
L_mid_hand02 0.000000 0.000000 0.000000 0.000000 0.000000 0.000000 10.000000 
L_mid_hand03 0.000000 0.000000 0.000000 0.000000 0.000000 0.000000 10.000000 
null_rope02_connect 0.000000 0.000000 0.000000 0.000000 0.000000 0.000000 10.000000 
Rope2_Seg01 0.000000 0.000000 0.000000 0.000000 0.000000 0.000000 10.000000 
Rope2_Seg02 0.000000 0.000000 0.000000 0.000000 0.000000 0.000000 10.000000 
Rope2_Seg03 0.000000 0.000000 0.000000 0.000000 0.000000 0.000000 10.000000 
Rope2_Seg04 0.000000 0.000000 0.000000 0.000000 0.000000 0.000000 10.000000 
Rope2_Seg05 0.000000 0.000000 0.000000 0.000000 0.000000 0.000000 10.000000 
Rope2_Seg06 0.000000 0.000000 0.000000 0.000000 0.000000 0.000000 10.000000 
Rope2_Seg07 0.000000 0.000000 0.000000 0.000000 0.000000 0.000000 10.000000 
Rope2_Seg09 0.000000 0.000000 0.000000 0.000000 0.000000 0.000000 10.000000 
R_mid_hand01 0.000000 0.000000 0.000000 0.000000 0.000000 0.000000 10.000000 
R_mid_hand02 0.000000 0.000000 0.000000 0.000000 0.000000 0.000000 10.000000 
R_mid_hand03 0.000000 0.000000 0.000000 0.000000 0.000000 0.000000 10.000000 
spine02 0.000000 0.000000 0.000000 0.000000 0.000000 0.000000 10.000000 
spine03 0.000000 0.000000 0.000000 0.000000 0.000000 0.000000 10.000000 
pelvis 0.000000 0.000000 0.000000 0.000000 0.000000 0.000000 10.000000 
null_rope03_connect 0.000000 0.000000 0.000000 0.000000 0.000000 0.000000 10.000000 
null_rope04_connect 0.000000 0.000000 0.000000 0.000000 0.000000 0.000000 10.000000 
Rope3_Seg01 0.000000 0.000000 0.000000 0.000000 0.000000 0.000000 10.000000 
Rope3_Seg02 0.000000 0.000000 0.000000 0.000000 0.000000 0.000000 10.000000 
Rope3_Seg03 0.000000 0.000000 0.000000 0.000000 0.000000 0.000000 10.000000 
Rope3_Seg04 0.000000 0.000000 0.000000 0.000000 0.000000 0.000000 10.000000 
Rope3_Seg05 0.000000 0.000000 0.000000 0.000000 0.000000 0.000000 10.000000 
Rope3_Seg06 0.000000 0.000000 0.000000 0.000000 0.000000 0.000000 10.000000 
Rope3_Seg07 0.000000 0.000000 0.000000 0.000000 0.000000 0.000000 10.000000 
Rope3_Seg08 0.000000 0.000000 0.000000 0.000000 0.000000 0.000000 10.000000 
Rope3_Seg09 0.000000 0.000000 0.000000 0.000000 0.000000 0.000000 10.000000 
R_rear_hand01 0.000000 0.000000 0.000000 0.000000 0.000000 0.000000 10.000000 
R_rear_hand02 0.000000 0.000000 0.000000 0.000000 0.000000 0.000000 10.000000 
R_rear_hand03 0.000000 0.000000 0.000000 0.000000 0.000000 0.000000 10.000000 
Rope4_Seg01 0.000000 0.000000 0.000000 0.000000 0.000000 0.000000 10.000000 
Rope4_Seg02 0.000000 0.000000 0.000000 0.000000 0.000000 0.000000 10.000000 
Rope4_Seg03 0.000000 0.000000 0.000000 0.000000 0.000000 0.000000 10.000000 
Rope4_Seg04 0.000000 0.000000 0.000000 0.000000 0.000000 0.000000 10.000000 
Rope4_Seg05 0.000000 0.000000 0.000000 0.000000 0.000000 0.000000 10.000000 
Rope4_Seg06 0.000000 0.000000 0.000000 0.000000 0.000000 0.000000 10.000000 
Rope4_Seg07 0.000000 0.000000 0.000000 0.000000 0.000000 0.000000 10.000000 
Rope4_Seg08 0.000000 0.000000 0.000000 0.000000 0.000000 0.000000 10.000000 
Rope4_Seg09 0.000000 0.000000 0.000000 0.000000 0.000000 0.000000 10.000000 
L_rear_hand01 0.000000 0.000000 0.000000 0.000000 0.000000 0.000000 10.000000 
L_rear_hand02 0.000000 0.000000 0.000000 0.000000 0.000000 0.000000 10.000000 
L_rear_hand03 0.000000 0.000000 0.000000 0.000000 0.000000 0.000000 10.000000 
#Beginning of Data. Separated by tabs
#Fr	Tx	Ty	Tz	Rx	Ry	Rz	SF
[MASTER]
15 2244.476807 -0.000339 0.000000 0.002347 0.000000 89.997704 2244.476807
16 2352.208252 -0.000355 0.000000 0.002347 0.000000 89.997704 2352.208008
[root]
15 -62.822105 16.502380 1020.145508 -11.263161 -28.007597 -167.818893 1022.211243
16 -62.822105 16.502380 1060.182861 -29.667131 -28.432802 -166.181702 1062.170654
[chest]
15 -84.512650 -34.090519 0.000000 69.047256 -4.916042 -167.096512 91.129311
16 -84.512650 -34.090519 0.000000 51.278606 -2.351608 -167.093445 91.129311
[L_mid_tent01]
15 27.490742 22.068008 -251.146729 -30.286831 1.954707 17.046070 253.608780
16 27.482986 22.072447 -251.096939 -30.018908 3.110020 18.269363 253.559021
[R_mid_tent01]
15 23.228794 24.509907 226.238495 -142.311584 -24.266567 14.214133 228.744751
16 23.228794 24.509907 226.238495 -139.055954 -14.754402 10.094258 228.744751
[spine01]
15 -0.361383 -0.195265 0.000000 33.471451 1.977200 -3.355795 0.410763
16 -0.361383 -0.195265 0.000000 35.550571 1.905671 -2.810797 0.410763
[Bip01_Neck]
15 165.484543 71.581718 0.000119 175.896118 1.177290 24.871183 180.302734
16 165.484543 71.581718 0.000119 175.896118 1.177290 24.871183 180.302734
[L_humerus]
15 -13.983130 -135.272980 -120.471481 170.940796 81.564224 -99.189163 181.680161
16 -13.983130 -135.272980 -120.471481 170.940796 81.564224 -99.189163 181.680161
[R_humerus]
15 -13.983309 -135.273102 125.287651 -159.666046 -68.957870 -101.166077 184.909012
16 -13.983309 -135.273102 125.287651 -159.666046 -68.957870 -101.166077 184.909012
[weapon_bone]
15 235.964890 -300.705902 0.000000 0.000000 -89.951546 -128.212341 382.234833
16 235.964890 -300.705902 0.000000 0.000000 -89.951546 -128.212341 382.234833
[Bip01_Head]
15 261.355774 108.959473 -2.864125 2.248029 5.843377 -62.458344 283.173492
16 261.355774 108.959488 -2.864120 2.248029 5.843377 -62.458344 283.173492
[eye_left_bone]
15 -24.626970 125.451866 -64.772606 0.000000 -90.000000 -99.840431 143.318359
16 -24.626970 125.451866 -64.772606 0.000000 -90.000000 -99.840431 143.318359
[eye_right_bone]
15 -24.626970 125.451866 64.327362 0.000000 -89.960434 80.159386 143.117676
16 -24.626970 125.451866 64.327362 0.000000 -89.960434 80.159386 143.117676
[L_forearm]
15 322.776093 0.000000 -0.000119 0.000471 0.002300 -66.859398 322.776093
16 322.776093 0.000000 -0.000119 0.000471 0.002300 -66.859406 322.776093
[L_front_hand]
15 241.149185 -0.042021 -3.300071 -178.667953 -1.835447 -27.422350 241.171753
16 241.149185 -0.042021 -3.300071 -178.667953 -1.835447 -27.422350 241.171753
[L_weapon_bone]
15 156.183838 0.000000 0.000000 0.001660 0.001660 0.001660 156.183838
16 156.183838 0.000000 0.000000 0.001660 0.001660 0.001660 156.183838
[L_front_hand01_01]
15 86.095154 20.947098 -0.655860 0.276758 -0.529744 10.286519 88.609184
16 86.095154 20.947098 -0.655860 0.244884 -0.545837 13.713188 88.609184
[L_front_hand02_01]
15 86.935165 -11.437475 24.513514 117.320633 -9.651673 -5.295431 91.046425
16 86.935165 -11.437475 24.513514 117.635902 -12.690722 -6.909610 91.046425
[L_front_hand03_01]
15 86.637497 -14.123976 -20.424902 -118.656441 8.449519 -7.262133 90.126129
16 86.637497 -14.123976 -20.424902 -118.947525 11.457403 -8.938595 90.126129
[L_front_hand01_02]
15 71.020905 -0.000179 0.000030 0.001081 0.002083 -35.157215 71.020905
16 71.020905 -0.000179 0.000030 0.001003 0.002122 -39.385151 71.020905
[L_front_hand02_02]
15 71.020927 -0.000119 0.000060 0.001081 0.002083 -35.157215 71.020927
16 71.020927 -0.000119 0.000060 0.001003 0.002122 -39.385151 71.020927
[L_front_hand03_02]
15 71.020905 -0.000060 0.000060 0.001081 0.002083 -35.157215 71.020905
16 71.020905 -0.000060 0.000060 0.001003 0.002122 -39.385151 71.020905
[R_forearm]
15 322.776428 -0.000060 0.000030 0.199694 -0.075621 -69.903069 322.776428
16 322.776428 -0.000060 0.000030 0.199694 -0.075621 -69.903069 322.776428
[R_front_hand]
15 238.847015 -0.006795 2.210259 -1.531694 0.790216 -51.443054 238.857239
16 238.847015 -0.006795 2.210259 -1.531694 0.790216 -51.443054 238.857239
[R_weapon_bone]
15 155.664093 0.002503 -0.000030 0.003487 0.001180 -90.988930 155.664078
16 155.664093 0.002503 -0.000030 0.003487 0.001180 -90.988930 155.664078
[R_front_hand01_01]
15 87.624611 14.231146 22.918642 -117.333893 -9.781584 5.472091 91.683487
16 87.624611 14.231146 22.918642 -117.652397 -12.820724 7.088303 91.683487
[R_front_hand02_01]
15 89.356956 14.367283 -19.491137 118.706993 8.852694 7.725608 92.579636
16 89.356956 14.367283 -19.491137 119.012291 11.853583 9.406950 92.579636
[R_front_hand03_01]
15 87.286232 -22.307278 -0.143439 -0.315605 -0.325845 -10.670901 90.091743
16 87.286232 -22.307278 -0.143439 -0.294689 -0.343740 -14.098675 90.091743
[R_front_hand01_02]
15 71.020905 0.000060 0.000119 0.002083 0.001081 35.155499 71.020905
16 71.020905 0.000060 0.000119 0.002122 0.001003 39.388680 71.020905
[R_front_hand02_02]
15 71.020844 -0.000030 -0.000119 0.002083 0.001081 35.155499 71.020836
16 71.020844 -0.000030 -0.000119 0.002122 0.001003 39.388680 71.020836
[R_front_hand03_02]
15 71.020905 0.000000 0.000030 0.002083 0.001081 35.155499 71.020905
16 71.020905 0.000000 0.000030 0.002122 0.001003 39.388680 71.020905
[null_rope01_connect]
15 328.732483 0.000000 -0.000238 43.965927 -32.591797 56.800621 328.732483
16 328.732483 0.000000 -0.000238 53.622894 -48.359058 46.159599 328.732483
[Rope1_Seg01]
15 0.000000 0.000000 0.000000 131.210342 50.229271 -17.256329 0.000000
16 0.000000 0.000000 0.000000 120.785583 61.469353 -36.312542 0.000000
[Rope1_Seg02]
15 139.999863 -0.000179 0.000000 6.560898 0.682807 -15.452574 139.999863
16 139.999863 -0.000179 0.000000 6.281612 -1.330022 -17.610571 139.999863
[Rope1_Seg03]
15 139.999924 0.000060 -0.000060 21.939400 -1.745680 -25.059484 139.999924
16 139.999924 0.000060 -0.000060 19.300325 -4.767754 -26.706156 139.999924
[Rope1_Seg04]
15 139.999924 -0.000060 -0.000119 40.317249 -11.541196 -24.922697 139.999924
16 139.999924 -0.000060 -0.000119 27.383059 -11.656294 -21.969452 139.999924
[Rope1_Seg05]
15 139.999832 0.000119 -0.000060 17.150768 -12.649418 -6.538634 139.999832
16 139.999832 0.000119 -0.000060 13.400075 -10.205162 -7.737843 139.999832
[Rope1_Seg06]
15 139.999954 0.000119 -0.000060 8.671337 -9.830713 -2.059723 139.999954
16 139.999954 0.000119 -0.000060 9.354762 -9.573284 -4.578466 139.999954
[Rope1_Seg07]
15 139.999985 0.000060 0.000000 5.922938 -9.461136 -0.518720 139.999985
16 139.999985 0.000060 0.000000 6.849142 -9.367262 -2.712744 139.999985
[Rope1_Seg09]
15 121.602913 0.000119 -0.000089 -89.793175 -1.359789 0.847147 121.602913
16 121.602913 0.000119 -0.000089 -89.793175 -1.359789 0.847147 121.602913
[L_mid_hand01]
15 103.859421 1.038730 8.195221 104.445610 -6.473835 -2.195928 104.187431
16 103.859421 1.038730 8.195221 104.530579 -8.858539 -2.815847 104.187431
[L_mid_hand02]
15 105.572853 -4.139662 -10.864139 -136.174118 8.800051 -8.461067 106.211075
16 105.572853 -4.139662 -10.864139 -136.473404 10.500956 -10.268885 106.211075
[L_mid_hand03]
15 104.641464 17.579376 -3.913581 -18.668604 1.936286 9.605985 106.179977
16 104.641464 17.579376 -3.913581 -18.575745 2.721513 11.937086 106.179977
[null_rope02_connect]
15 328.732849 0.000179 -0.000119 -147.762085 -38.378250 -57.422550 328.732849
16 328.732849 0.000179 -0.000119 -150.760056 -20.353895 -61.335426 328.732849
[Rope2_Seg01]
15 -0.000055 0.000134 0.000153 124.814507 -26.499569 -14.418538 0.000210
16 -0.000053 0.000134 0.000153 87.625587 -9.268319 -20.621096 0.000210
[Rope2_Seg02]
15 139.999741 -0.000060 -0.000119 -24.456825 8.243787 -27.838337 139.999756
16 139.999741 -0.000060 -0.000119 -9.933140 18.627213 -16.278599 139.999756
[Rope2_Seg03]
15 140.000107 0.000030 0.000000 -10.909099 21.619431 -27.002190 140.000107
16 140.000107 0.000030 0.000000 -6.100389 25.693733 -17.756502 140.000107
[Rope2_Seg04]
15 139.999802 0.000000 -0.000060 -1.388292 12.789493 -13.502571 139.999802
16 139.999802 0.000000 -0.000060 -1.600778 16.829386 -10.262868 139.999802
[Rope2_Seg05]
15 139.999985 -0.000060 0.000119 1.365284 9.338531 -13.091463 139.999985
16 139.999985 -0.000060 0.000119 -0.548662 14.353182 -8.919192 139.999985
[Rope2_Seg06]
15 139.999893 -0.000030 -0.000119 3.247079 7.134545 -10.753230 139.999893
16 139.999893 -0.000030 -0.000119 0.392020 11.829188 -7.476039 139.999893
[Rope2_Seg07]
15 139.999893 0.000060 -0.000060 3.276206 4.086131 -6.742461 139.999893
16 139.999893 0.000060 -0.000060 0.901144 7.031027 -4.567370 139.999893
[Rope2_Seg09]
15 121.338966 0.000089 -0.000060 33.793236 -1.359788 -0.847141 121.338966
16 121.338966 0.000089 -0.000060 33.793236 -1.359788 -0.847141 121.338966
[R_mid_hand01]
15 104.680779 11.144459 -10.335981 -46.801640 8.973886 11.064841 105.778534
16 104.680779 11.144459 -10.335981 -46.526108 10.640026 12.655807 105.778534
[R_mid_hand02]
15 104.070427 2.443552 8.231699 75.403473 -10.192782 3.176561 104.424065
16 104.070427 2.443552 8.231699 75.284584 -12.403854 3.766673 104.424065
[R_mid_hand03]
15 106.028137 -11.221827 -5.996406 -164.874466 4.674486 -14.062467 106.788818
16 106.028137 -11.221827 -5.996406 -165.067444 5.264448 -16.276682 106.788818
[spine02]
15 129.756927 0.001550 0.000119 -0.245322 -4.052060 -4.355547 129.756927
16 129.756927 0.001550 0.000119 -0.245322 -4.052060 -4.355547 129.756927
[spine03]
15 78.613739 0.087213 -4.899075 0.369659 4.260734 -4.885720 78.766289
16 78.613739 0.087219 -4.899095 0.369659 4.260734 -4.885720 78.766289
[pelvis]
15 169.435242 0.051022 0.000000 -0.010047 -0.193695 -1.851898 169.435257
16 169.435242 0.051022 0.000000 -0.010040 -0.193315 -1.859507 169.435257
[null_rope03_connect]
15 -1.257226 -2.466202 137.391083 23.112057 28.007973 92.968857 137.418976
16 -1.257226 -2.466202 137.391083 26.531542 12.797256 92.104927 137.418976
[null_rope04_connect]
15 -1.259640 -2.480268 -137.844437 23.112057 28.007973 92.968857 137.872513
16 -1.259640 -2.480268 -137.844437 26.531542 12.797256 92.104927 137.872513
[Rope3_Seg01]
15 0.000000 0.000000 0.000000 63.345352 -24.206928 -154.352600 0.000000
16 0.000000 0.000000 0.000000 101.212967 -38.655598 -158.654221 0.000000
[Rope3_Seg02]
15 139.999924 -0.000119 0.000060 55.643482 -12.473415 -2.195374 139.999924
16 139.999924 -0.000119 0.000060 26.363935 -10.866817 6.538955 139.999924
[Rope3_Seg03]
15 139.999924 -0.000119 0.000119 53.197411 -18.635376 20.162066 139.999924
16 139.999924 -0.000119 0.000119 27.479956 -14.120585 23.491993 139.999924
[Rope3_Seg04]
15 139.999924 0.000119 0.000000 10.890832 6.770057 32.607964 139.999924
16 139.999924 0.000119 0.000000 9.905963 -0.744735 33.352013 139.999924
[Rope3_Seg05]
15 139.999924 -0.000238 0.000060 3.735791 9.472010 26.389906 139.999924
16 139.999924 -0.000238 0.000060 1.750282 3.433579 27.543633 139.999924
[Rope3_Seg06]
15 139.999893 -0.000119 -0.000060 0.789222 7.012202 18.106642 139.999893
16 139.999893 -0.000119 -0.000060 -1.983858 2.430462 19.016172 139.999893
[Rope3_Seg07]
15 139.999771 0.000060 -0.000119 -0.101591 3.062601 7.812082 139.999771
16 139.999771 0.000060 -0.000119 -1.790864 0.786571 8.321510 139.999771
[Rope3_Seg08]
15 139.999985 -0.000060 0.000000 0.037010 1.494901 3.845993 139.999985
16 139.999985 -0.000060 0.000000 -0.963806 0.263933 4.115294 139.999985
[Rope3_Seg09]
15 90.185997 -0.000179 -0.000060 89.793228 -1.359877 -0.847183 90.185997
16 90.185997 -0.000179 -0.000060 89.793228 -1.359877 -0.847183 90.185997
[R_rear_hand01]
15 103.366196 -6.073594 -10.757982 -156.260391 6.888772 -4.662050 104.101845
16 103.366196 -6.073594 -10.757982 -156.519684 7.778793 -6.714527 104.101845
[R_rear_hand02]
15 100.509819 12.039542 -7.992327 -38.633274 3.224904 7.045907 101.543350
16 100.509819 12.039542 -7.992327 -38.515537 4.609975 8.784945 101.543350
[R_rear_hand03]
15 101.539970 5.215704 5.435467 84.294777 -4.384002 4.300453 101.819031
16 101.539970 5.215704 5.435467 84.275841 -6.590108 4.520812 101.819031
[Rope4_Seg01]
15 0.000000 0.000000 0.000000 -100.601456 5.214900 -97.485321 0.000000
16 0.000000 0.000000 0.000000 -100.998566 0.337041 -103.789940 0.000000
[Rope4_Seg02]
15 139.999985 0.000060 0.000119 1.793775 19.373899 24.733566 139.999985
16 139.999985 0.000060 0.000119 2.345525 23.119640 18.525679 139.999985
[Rope4_Seg03]
15 139.999924 0.000000 -0.000238 -38.070393 27.140368 52.356472 139.999924
16 139.999924 0.000000 -0.000238 -50.485474 38.284401 45.991951 139.999924
[Rope4_Seg04]
15 139.999985 0.000000 0.000119 -41.845749 -4.019103 20.935867 139.999985
16 139.999985 0.000000 0.000119 -69.909142 -5.247419 21.982590 139.999985
[Rope4_Seg05]
15 139.999802 -0.000060 -0.000119 -24.360380 -3.618924 12.735852 139.999802
16 139.999802 -0.000060 -0.000119 -22.679865 -9.037002 8.768201 139.999802
[Rope4_Seg06]
15 139.999924 0.000000 0.000060 -16.459648 -5.969142 8.091044 139.999924
16 139.999924 0.000000 0.000060 -11.374670 -8.628385 4.381910 139.999924
[Rope4_Seg07]
15 139.999802 0.000000 0.000000 -6.360682 -4.936038 2.561842 139.999802
16 139.999802 0.000000 0.000000 -3.257425 -5.390817 0.437374 139.999802
[Rope4_Seg08]
15 139.999924 0.000000 0.000119 -4.673193 -3.102854 1.202817 139.999924
16 139.999924 0.000000 0.000119 -3.088303 -3.247135 0.079313 139.999924
[Rope4_Seg09]
15 90.185791 0.000060 0.000060 -135.617828 2.228885 0.850567 90.185791
16 90.185791 0.000060 0.000060 -135.617828 2.228885 0.850567 90.185791
[L_rear_hand01]
15 101.696655 -8.392275 -7.654577 -38.734707 -1.082930 175.627808 102.329041
16 101.696655 -8.392275 -7.654577 -38.676117 -2.543634 173.809082 102.329041
[L_rear_hand02]
15 102.726799 -1.568258 5.773216 84.315697 0.973563 176.040817 102.900848
16 102.726799 -1.568258 5.773216 84.302147 3.292158 175.808121 102.900848
[L_rear_hand03]
15 104.552910 9.721220 -10.420293 -155.919388 -5.502444 -178.482697 105.519653
16 104.552910 9.721220 -10.420293 -156.143280 -6.452847 -176.342621 105.519653
